<?xml version="1.0" encoding="UTF-8"?>
<svg id="Ebene_1" data-name="Ebene 1" xmlns="http://www.w3.org/2000/svg" viewBox="0 0 179.6 178.9">
  <defs>
    <style>
      .cls-1 {
        stroke-width: 2px;
      }

      .cls-1, .cls-2, .cls-3, .cls-4 {
        fill: none;
        stroke-miterlimit: 10;
      }

      .cls-1, .cls-3 {
        stroke: #575756;
      }

      .cls-5 {
        font-family: Sylfaen, Sylfaen;
        font-size: 11px;
        letter-spacing: 0em;
      }

      .cls-5, .cls-6 {
        fill: #575756;
      }

      .cls-2, .cls-4 {
        stroke: #1d1d1b;
      }

      .cls-6 {
        font-family: MyriadPro-Regular, 'Myriad Pro';
        font-size: 27px;
      }

      .cls-7 {
        letter-spacing: -.02em;
      }

      .cls-4 {
        stroke-width: 8px;
      }

      .cls-8 {
        letter-spacing: 0em;
      }

      .cls-9 {
        letter-spacing: 0em;
      }
    </style>
  </defs>
  <circle class="cls-2" cx="83.97" cy="83.97" r="83.47"/>
  <circle class="cls-4" cx="92.13" cy="91.44" r="83.47"/>
  <text class="cls-6" transform="translate(99.91 61.6)"><tspan class="cls-9"><tspan x="0" y="0">SP </tspan></tspan><tspan class="cls-7" x="0" y="32.4">W</tspan><tspan class="cls-8" x="22.17" y="32.4">eb</tspan></text>
  <line class="cls-1" x1="92.13" y1="27.56" x2="92.13" y2="140.09"/>
  <text class="cls-5" transform="translate(99.91 117.46)"><tspan x="0" y="0">Creations</tspan></text>
  <g>
    <line class="cls-3" x1="80.18" y1="93.01" x2="80.36" y2="110.76"/>
    <line class="cls-3" x1="32.04" y1="92.92" x2="80.18" y2="93.01"/>
    <line class="cls-3" x1="31.91" y1="110.85" x2="31.91" y2="92.92"/>
    <line class="cls-3" x1="29.71" y1="87.81" x2="82.6" y2="87.81"/>
    <line class="cls-3" x1="29.71" y1="92.92" x2="29.71" y2="87.81"/>
    <line class="cls-3" x1="29.71" y1="92.92" x2="32.04" y2="92.92"/>
    <line class="cls-3" x1="63.42" y1="92.98" x2="63.42" y2="106.64"/>
    <line class="cls-3" x1="80.32" y1="106.82" x2="63.42" y2="106.64"/>
    <line class="cls-3" x1="63.42" y1="99.29" x2="80.25" y2="99.28"/>
    <line class="cls-3" x1="66.38" y1="86.11" x2="66.38" y2="88.71"/>
    <line class="cls-3" x1="66.38" y1="86.11" x2="67.9" y2="86.11"/>
    <line class="cls-3" x1="67.9" y1="83.6" x2="67.9" y2="86.11"/>
    <line class="cls-3" x1="60.01" y1="83.6" x2="79.46" y2="83.6"/>
    <line class="cls-3" x1="60.01" y1="70.33" x2="60.01" y2="83.6"/>
    <line class="cls-3" x1="79.46" y1="83.6" x2="79.46" y2="70.33"/>
    <line class="cls-3" x1="60.01" y1="70.33" x2="79.46" y2="70.33"/>
    <line class="cls-3" x1="60.01" y1="80.28" x2="74.8" y2="80.37"/>
    <line class="cls-3" x1="43.43" y1="87.81" x2="43.43" y2="84.85"/>
    <line class="cls-3" x1="34.37" y1="84.85" x2="34.37" y2="87.81"/>
    <line class="cls-3" x1="43.43" y1="84.85" x2="31.91" y2="84.76"/>
    <line class="cls-3" x1="31.91" y1="81.09" x2="31.91" y2="84.76"/>
    <line class="cls-3" x1="41.01" y1="81.09" x2="31.91" y2="81.09"/>
    <line class="cls-3" x1="41.01" y1="84.76" x2="41.01" y2="81.09"/>
    <line class="cls-3" x1="41.45" y1="110.85" x2="60.73" y2="110.85"/>
    <line class="cls-3" x1="71.57" y1="103.05" x2="72.4" y2="103.05"/>
    <line class="cls-3" x1="71.38" y1="96.51" x2="72.58" y2="96.51"/>
    <line class="cls-3" x1="47.55" y1="111.13" x2="47.73" y2="79.03"/>
    <circle class="cls-3" cx="47.32" cy="69.94" r="9.65"/>
    <line class="cls-3" x1="47.64" y1="79.58" x2="47.64" y2="68"/>
    <line class="cls-3" x1="41.99" y1="70.33" x2="47.64" y2="76.34"/>
    <line class="cls-3" x1="50.06" y1="69.08" x2="47.64" y2="71.5"/>
    <line class="cls-3" x1="72.59" y1="86.06" x2="72.59" y2="88.66"/>
    <line class="cls-3" x1="72.59" y1="86.06" x2="70.94" y2="86.06"/>
    <line class="cls-3" x1="70.94" y1="83.55" x2="70.94" y2="86.06"/>
    <line class="cls-3" x1="82.6" y1="92.92" x2="82.6" y2="87.81"/>
    <line class="cls-3" x1="82.6" y1="93.01" x2="79.87" y2="93.01"/>
  </g>
</svg>